<?xml version="1.0" standalone="no"?>
<!DOCTYPE svg PUBLIC "-//W3C//DTD SVG 20010904//EN"
 "http://www.w3.org/TR/2001/REC-SVG-20010904/DTD/svg10.dtd">
<svg version="1.0" xmlns="http://www.w3.org/2000/svg"
 width="513.000000pt" height="513.000000pt" viewBox="0 0 513.000000 513.000000"
 preserveAspectRatio="xMidYMid meet">
<metadata>
Created by potrace 1.14, written by Peter Selinger 2001-2017
</metadata>
<g transform="translate(0.000000,513.000000) scale(0.100000,-0.100000)"
fill="#000000" stroke="none">
<path d="M662 4348 c-17 -17 -17 -3319 0 -3336 17 -17 359 -17 376 0 9 9 12
330 12 1385 0 755 2 1373 5 1373 3 0 183 -178 400 -395 279 -279 402 -395 417
-395 16 0 137 115 414 395 216 217 395 395 397 395 2 0 4 -616 4 -1370 0
-1085 3 -1373 13 -1385 18 -22 351 -22 373 0 13 13 15 95 16 592 0 318 0 596
1 618 l0 40 628 -628 c345 -345 634 -627 641 -627 18 0 259 238 267 263 5 16
-129 155 -687 714 -382 382 -696 696 -699 699 -2 3 307 316 688 697 381 381
692 698 692 705 0 22 -246 262 -268 262 -14 0 -226 -205 -641 -621 -342 -342
-621 -617 -621 -613 -1 5 -1 279 -1 609 -1 354 -5 607 -10 617 -9 16 -28 18
-192 18 l-181 0 -418 -417 -418 -418 -418 418 -418 417 -180 0 c-127 0 -184
-4 -192 -12z"/>
</g>
</svg>
