<svg width="32" height="27" viewBox="0 0 32 27" fill="none" xmlns="http://www.w3.org/2000/svg">
<path d="M31.5249 9.04889C31.1024 8.51877 30.4684 8.21464 29.7856 8.21464H23.6228L20.281 0.562581C20.0738 0.0881437 19.5212 -0.128669 19.0467 0.0786437C18.5722 0.285831 18.3555 0.838519 18.5627 1.31302L21.5768 8.2147H10.4232L13.4373 1.31302C13.6444 0.838519 13.4278 0.285894 12.9533 0.0786437C12.4789 -0.128669 11.9262 0.0880187 11.719 0.562581L8.37719 8.2147H2.21444C1.53157 8.2147 0.897629 8.51877 0.475066 9.04895C0.0602539 9.56945 -0.0928085 10.2386 0.0551289 10.885L3.34619 25.2599C3.576 26.2637 4.46394 26.9647 5.5055 26.9647H26.4945C27.5361 26.9647 28.424 26.2637 28.6538 25.2599L31.9449 10.8849C32.0928 10.2385 31.9397 9.56939 31.5249 9.04889ZM26.4945 25.0896H5.5055C5.34631 25.0896 5.20688 24.9853 5.17394 24.8414L1.88288 10.4665C1.85707 10.3537 1.90038 10.2688 1.94138 10.2175C1.97938 10.1698 2.06544 10.0897 2.21444 10.0897H7.55838L7.31281 10.652C7.10563 11.1265 7.32225 11.6791 7.79675 11.8864C7.91888 11.9398 8.04613 11.965 8.17144 11.965C8.53281 11.965 8.87719 11.7548 9.03106 11.4025L9.60438 10.0898H22.3957L22.9691 11.4025C23.1229 11.7549 23.4673 11.965 23.8287 11.965C23.9539 11.965 24.0812 11.9398 24.2034 11.8864C24.6779 11.6792 24.8946 11.1265 24.6873 10.652L24.4417 10.0897H29.7857C29.9347 10.0897 30.0207 10.1698 30.0587 10.2175C30.0997 10.2689 30.1431 10.3538 30.1172 10.4665L26.8262 24.8414C26.7932 24.9853 26.6537 25.0896 26.4945 25.0896Z" fill="#AFC2C9"/>
<path d="M10.375 14.1521C9.85725 14.1521 9.4375 14.5719 9.4375 15.0896V21.9646C9.4375 22.4824 9.85725 22.9021 10.375 22.9021C10.8927 22.9021 11.3125 22.4824 11.3125 21.9646V15.0896C11.3125 14.5719 10.8928 14.1521 10.375 14.1521Z" fill="#AFC2C9"/>
<path d="M16 14.1521C15.4822 14.1521 15.0625 14.5719 15.0625 15.0896V21.9646C15.0625 22.4824 15.4822 22.9021 16 22.9021C16.5177 22.9021 16.9375 22.4824 16.9375 21.9646V15.0896C16.9375 14.5719 16.5177 14.1521 16 14.1521Z" fill="#AFC2C9"/>
<path d="M21.625 14.1521C21.1072 14.1521 20.6875 14.5719 20.6875 15.0896V21.9646C20.6875 22.4824 21.1072 22.9021 21.625 22.9021C22.1427 22.9021 22.5625 22.4824 22.5625 21.9646V15.0896C22.5624 14.5719 22.1427 14.1521 21.625 14.1521Z" fill="#AFC2C9"/>
</svg>
