<svg width="52" height="52" viewBox="0 0 52 52" xmlns="http://www.w3.org/2000/svg">
<path d="M49.4 10.4029H36.4V6.06117C36.339 4.39681 35.6205 2.82454 34.4021 1.68903C33.1836 0.553514 31.5646 -0.0525904 29.9 0.00358369H22.1C20.4354 -0.0525904 18.8164 0.553514 17.5979 1.68903C16.3795 2.82454 15.661 4.39681 15.6 6.06117V10.4029H2.6C1.91044 10.4029 1.24912 10.6768 0.761522 11.1643C0.273928 11.6519 0 12.3132 0 13.0027C0 13.6922 0.273928 14.3535 0.761522 14.841C1.24912 15.3286 1.91044 15.6025 2.6 15.6025H5.2V44.2005C5.2 46.2691 6.02178 48.2529 7.48457 49.7156C8.94735 51.1783 10.9313 52 13 52H39C41.0687 52 43.0526 51.1783 44.5154 49.7156C45.9782 48.2529 46.8 46.2691 46.8 44.2005V15.6025H49.4C50.0896 15.6025 50.7509 15.3286 51.2385 14.841C51.7261 14.3535 52 13.6922 52 13.0027C52 12.3132 51.7261 11.6519 51.2385 11.1643C50.7509 10.6768 50.0896 10.4029 49.4 10.4029ZM20.8 36.4011C20.8 37.0906 20.5261 37.7519 20.0385 38.2394C19.5509 38.727 18.8896 39.0009 18.2 39.0009C17.5104 39.0009 16.8491 38.727 16.3615 38.2394C15.8739 37.7519 15.6 37.0906 15.6 36.4011V26.0018C15.6 25.3123 15.8739 24.651 16.3615 24.1634C16.8491 23.6759 17.5104 23.402 18.2 23.402C18.8896 23.402 19.5509 23.6759 20.0385 24.1634C20.5261 24.651 20.8 25.3123 20.8 26.0018V36.4011ZM20.8 6.06117C20.8 5.64519 21.346 5.20323 22.1 5.20323H29.9C30.654 5.20323 31.2 5.64519 31.2 6.06117V10.4029H20.8V6.06117ZM36.4 36.4011C36.4 37.0906 36.1261 37.7519 35.6385 38.2394C35.1509 38.727 34.4896 39.0009 33.8 39.0009C33.1104 39.0009 32.4491 38.727 31.9615 38.2394C31.4739 37.7519 31.2 37.0906 31.2 36.4011V26.0018C31.2 25.3123 31.4739 24.651 31.9615 24.1634C32.4491 23.6759 33.1104 23.402 33.8 23.402C34.4896 23.402 35.1509 23.6759 35.6385 24.1634C36.1261 24.651 36.4 25.3123 36.4 26.0018V36.4011Z"/>
</svg>
