<svg width="100" height="100" viewBox="0 0 100 100" xmlns="http://www.w3.org/2000/svg">
<path id="inst" d="M50 0C36.4077 0 34.7137 0.0656332 29.3943 0.290661C24.053 0.553194 20.4401 1.38142 17.2522 2.61908C13.9157 3.87867 10.8941 5.85078 8.39792 8.39792C5.84368 10.8882 3.87047 13.9115 2.61908 17.2522C1.38142 20.4401 0.553194 24.053 0.290661 29.3943C0.0500063 34.7168 0 36.4077 0 50C0 63.5923 0.0656332 65.2863 0.290661 70.6057C0.553194 75.9314 1.38142 79.5599 2.61908 82.7478C3.87867 86.0843 5.85078 89.1059 8.39792 91.6021C10.8882 94.1563 13.9115 96.1295 17.2522 97.3809C20.4401 98.603 24.0686 99.4468 29.3943 99.7093C34.7168 99.95 36.4077 100 50 100C63.5923 100 65.2863 99.9344 70.6057 99.7093C75.9314 99.4468 79.5599 98.5998 82.7478 97.3809C86.0843 96.1213 89.1059 94.1492 91.6021 91.6021C94.1596 89.1145 96.1333 86.0904 97.3809 82.7478C98.603 79.5599 99.4468 75.9314 99.7093 70.6057C99.95 65.2832 100 63.5923 100 50C100 36.4077 99.9344 34.7137 99.7093 29.3943C99.4468 24.0686 98.5998 20.4213 97.3809 17.2522C96.1213 13.9157 94.1492 10.8941 91.6021 8.39792C89.1145 5.84038 86.0904 3.86667 82.7478 2.61908C79.5599 1.38142 75.9314 0.553194 70.6057 0.290661C65.2832 0.0500063 63.5923 0 50 0ZM50 9.00113C63.3485 9.00113 64.9425 9.06676 70.2182 9.29179C75.0844 9.51994 77.7347 10.3325 79.4943 11.0201C81.6697 11.8231 83.6385 13.1012 85.2575 14.7612C86.9148 16.3734 88.188 18.3378 88.983 20.5088C89.6706 22.2684 90.4832 24.9187 90.7113 29.785C90.9364 35.0606 91.002 36.6577 91.002 50.0031C91.002 63.3485 90.9364 64.9456 90.6926 70.2213C90.4301 75.0875 89.6175 77.7378 88.933 79.4974C87.986 81.8446 86.9296 83.4854 85.1856 85.2607C83.5612 86.9103 81.5936 88.1822 79.4224 88.9861C77.6847 89.6737 74.9969 90.4863 70.1119 90.7145C64.8081 90.9395 63.2454 91.0051 49.8625 91.0051C36.4796 91.0051 34.92 90.9395 29.61 90.6957C24.7437 90.4332 22.059 89.6206 20.2994 88.9361C17.9241 87.9891 16.2958 86.9327 14.5518 85.1888C12.7922 83.4292 11.6733 81.754 10.8107 79.4256C10.1106 77.6878 9.31054 75 9.05113 70.115C8.87298 64.8737 8.7886 63.2485 8.7886 49.9281C8.7886 36.6139 8.87298 34.9856 9.05113 29.6787C9.31054 24.7937 10.1106 22.1121 10.8107 20.3682C11.6733 17.9897 12.7954 16.3645 14.5518 14.6049C16.2927 12.8641 17.9241 11.739 20.2994 10.8576C22.059 10.1731 24.6781 9.36055 29.5631 9.11676C34.8669 8.92612 36.4296 8.85736 49.7937 8.85736L50 9.00113ZM50 24.3374C46.6288 24.3362 43.2904 24.9993 40.1755 26.2888C37.0607 27.5784 34.2305 29.4691 31.8466 31.8529C29.4628 34.2367 27.5721 37.0669 26.2826 40.1818C24.993 43.2966 24.3299 46.635 24.3312 50.0062C24.3299 53.3775 24.993 56.7159 26.2826 59.8307C27.5721 62.9456 29.4628 65.7758 31.8466 68.1596C34.2305 70.5434 37.0607 72.4341 40.1755 73.7237C43.2904 75.0132 46.6288 75.6763 50 75.6751C53.3712 75.6763 56.7097 75.0132 59.8245 73.7237C62.9393 72.4341 65.7695 70.5434 68.1534 68.1596C70.5372 65.7758 72.4279 62.9456 73.7174 59.8307C75.007 56.7159 75.6701 53.3775 75.6688 50.0062C75.6701 46.635 75.007 43.2966 73.7174 40.1818C72.4279 37.0669 70.5372 34.2367 68.1534 31.8529C65.7695 29.4691 62.9393 27.5784 59.8245 26.2888C56.7097 24.9993 53.3712 24.3362 50 24.3374ZM50 66.674C40.7864 66.674 33.3323 59.2199 33.3323 50.0062C33.3323 40.7926 40.7864 33.3385 50 33.3385C59.2137 33.3385 66.6677 40.7926 66.6677 50.0062C66.6677 59.2199 59.2137 66.674 50 66.674ZM82.7041 23.3123C82.7024 24.9052 82.0685 26.4323 80.9416 27.558C79.8146 28.6838 78.2869 29.3162 76.694 29.3162C75.9063 29.3162 75.1264 29.161 74.3988 28.8596C73.6711 28.5582 73.0099 28.1164 72.453 27.5595C71.8961 27.0026 71.4543 26.3414 71.1529 25.6137C70.8515 24.8861 70.6963 24.1062 70.6963 23.3185C70.6963 22.5309 70.8515 21.751 71.1529 21.0233C71.4543 20.2957 71.8961 19.6345 72.453 19.0776C73.0099 18.5206 73.6711 18.0789 74.3988 17.7775C75.1264 17.476 75.9063 17.3209 76.694 17.3209C79.9975 17.3209 82.7041 20.0088 82.7041 23.3123Z"/>
</svg>
