<svg width="20" height="20" viewBox="0 0 20 20" xmlns="http://www.w3.org/2000/svg">
<path d="M14.075 0.693903L19.3061 5.92488C19.5261 6.14487 19.7006 6.40604 19.8197 6.69347C19.9387 6.9809 20 7.28897 20 7.60009C20 7.91121 19.9387 8.21928 19.8197 8.50671C19.7006 8.79415 19.5261 9.05532 19.3061 9.27531L10.1653 18.4148L16.5852 18.4158C16.7762 18.4156 16.9609 18.4846 17.1049 18.61C17.249 18.7355 17.3426 18.9089 17.3686 19.0981L17.3749 19.2055C17.3749 19.3964 17.3058 19.5807 17.1804 19.7245C17.055 19.8684 16.8817 19.9619 16.6926 19.9878L16.5852 19.9952L7.72982 19.9963C7.39738 20.015 7.06474 19.9632 6.75371 19.8443C6.44268 19.7255 6.16029 19.5422 5.92504 19.3066L0.693923 14.0746C0.473922 13.8546 0.299408 13.5934 0.180345 13.306C0.0612812 13.0185 0 12.7105 0 12.3994C0 12.0882 0.0612812 11.7802 0.180345 11.4927C0.299408 11.2053 0.473922 10.9441 0.693923 10.7241L10.7244 0.693903C10.9444 0.473909 11.2056 0.2994 11.4931 0.18034C11.7805 0.0612795 12.0886 0 12.3997 0C12.7108 0 13.0189 0.0612795 13.3063 0.18034C13.5938 0.2994 13.855 0.473909 14.075 0.693903ZM3.37582 10.2745L1.81006 11.8413C1.66217 11.9894 1.57911 12.1901 1.57911 12.3994C1.57911 12.6086 1.66217 12.8093 1.81006 12.9574L7.04223 18.1894C7.19596 18.3432 7.39813 18.4211 7.6003 18.4211L7.63084 18.4158L7.67085 18.4179C7.85518 18.4015 8.0278 18.3206 8.15837 18.1894L9.72413 16.6237L3.37476 10.2745H3.37582ZM11.8416 1.81001L4.49196 9.15738L10.8413 15.5066L18.1899 8.1592C18.2633 8.08586 18.3215 7.99878 18.3613 7.90294C18.401 7.8071 18.4214 7.70437 18.4214 7.60062C18.4214 7.49687 18.401 7.39414 18.3613 7.2983C18.3215 7.20245 18.2633 7.11537 18.1899 7.04204L12.9578 1.81001C12.8097 1.66213 12.609 1.57906 12.3997 1.57906C12.1904 1.57906 11.9897 1.66213 11.8416 1.81001Z"/>
</svg>
