<svg width="27" height="28" viewBox="0 0 27 28" xmlns="http://www.w3.org/2000/svg">
<path d="M10.7993 6.67172e-08C9.08044 0.00024616 7.38644 0.410727 5.85811 1.19733C4.32978 1.98393 3.01126 3.12393 2.01212 4.5226C1.01298 5.92126 0.362084 7.53818 0.113525 9.23899C-0.135034 10.9398 0.0259232 12.6754 0.583019 14.3015C1.14011 15.9276 2.07726 17.3972 3.31657 18.5883C4.55588 19.7794 6.06156 20.6574 7.70848 21.1496C9.3554 21.6417 11.096 21.7337 12.7856 21.4178C14.4752 21.1019 16.065 20.3874 17.4229 19.3335L24.6946 26.6079C24.9481 26.8611 25.2918 27.0032 25.6501 27.0029C26.0084 27.0026 26.3519 26.8601 26.605 26.6066C26.8582 26.3531 27.0003 26.0094 27 25.6511C26.9997 25.2928 26.8572 24.9493 26.6037 24.6962L19.332 17.4245C20.5715 15.8279 21.3382 13.9156 21.5448 11.9049C21.7514 9.89427 21.3897 7.86598 20.5007 6.0507C19.6118 4.23543 18.2314 2.70601 16.5163 1.63636C14.8013 0.56672 12.8206 -0.00022455 10.7993 6.67172e-08ZM2.69867 10.8009C2.69867 8.65243 3.55213 6.592 5.07129 5.07284C6.59046 3.55367 8.65089 2.70021 10.7993 2.70021C12.9477 2.70021 15.0082 3.55367 16.5273 5.07284C18.0465 6.592 18.9 8.65243 18.9 10.8009C18.9 12.9493 18.0465 15.0097 16.5273 16.5289C15.0082 18.048 12.9477 18.9015 10.7993 18.9015C8.65089 18.9015 6.59046 18.048 5.07129 16.5289C3.55213 15.0097 2.69867 12.9493 2.69867 10.8009Z"/>
</svg>
