<svg width="100" height="100" viewBox="0 0 100 100" xmlns="http://www.w3.org/2000/svg">
<path id="vk" d="M65.35 0H34.65C6.65 0 0 6.65 0 34.65V65.35C0 93.35 6.65 100 34.65 100H65.35C93.35 100 100 93.35 100 65.35V34.65C100 6.65 93.35 0 65.35 0ZM80.75 71.35H73.45C70.7 71.35 69.85 69.1 65 64.15C60.6 60 58.7 59.4 57.65 59.4C56.2 59.4 55.75 59.8 55.75 61.9V68.45C55.75 70.2 55.2 71.3 50.55 71.3C42.85 71.3 34.3 66.6 28.3 57.95C19.25 45.25 16.8 35.65 16.8 33.75C16.8 32.7 17.15 31.7 19.25 31.7H26.6C28.45 31.7 29.15 32.5 29.85 34.5C33.45 45 39.45 54 41.9 54C42.85 54 43.25 53.55 43.25 51.25V40.5C43 35.6 40.35 35.15 40.35 33.4C40.35 32.5 41.05 31.7 42.2 31.7H53.65C55.2 31.7 55.75 32.5 55.75 34.4V48.85C55.75 50.4 56.4 50.95 56.9 50.95C57.8 50.95 58.6 50.4 60.25 48.7C65.5 42.85 69.25 33.8 69.25 33.8C69.75 32.75 70.55 31.75 72.5 31.75H79.65C81.85 31.75 82.35 32.9 81.85 34.45C80.95 38.7 72.05 51.25 72.15 51.25C71.35 52.5 71.05 53.05 72.15 54.5C72.9 55.55 75.45 57.75 77.15 59.7C80.25 63.25 82.65 66.2 83.3 68.25C83.85 70.3 82.85 71.35 80.75 71.35Z"/>
</svg>
